# AST/ASF file generated using VICON BodyLanguage
# -----------------------------------------------
:version 1.10
:name VICON
:units
  mass 1.0
  length 0.45
  angle deg
:documentation
   .ast/.asf automatically generated from VICON data using
   VICON BodyBuilder and BodyLanguage model FoxedUp or BRILLIANT.MOD
:root
   order TX TY TZ RX RY RZ
   axis XYZ
   position 0 0 0  
   orientation 0 0 0 
:bonedata
  begin
     id 1 
     name lhipjoint
     direction 0.707368 -0.647095 0.284426 
     length 2.60678 
     axis 0 0 0  XYZ
  end
  begin
     id 2 
     name lfemur
     direction 0.34202 -0.939693 0  
     length 6.63812  
     axis 0 0 20  XYZ
    dof rx ry rz
    limits (-160.0 20.0)
           (-70.0 70.0)
           (-60.0 70.0)
  end
  begin
     id 3 
     name ltibia
     direction 0.34202 -0.939693 0   
     length 7.51178   
     axis 0 0 20   XYZ
    dof rx
    limits (-10.0 170.0)
  end
  begin
     id 4 
     name lfoot
     direction 0.121251 -0.333133 0.935051   
     length 1.83716   
     axis -90 7.62852e-016 20   XYZ
    dof rx rz
    limits (-45.0 90.0)
           (-70.0 20.0)
  end
  begin
     id 5 
     name ltoes
     direction 1.53611e-011 -4.21962e-011 1   
     length 0.916133   
     axis -90 7.62852e-016 20   XYZ
    dof rx
    limits (-90.0 20.0)
  end
  begin
     id 6 
     name rhipjoint
     direction -0.692419 -0.660507 0.290321   
     length 2.55385  
     axis 0 0 0  XYZ 
  end
  begin
     id 7 
     name rfemur
     direction -0.34202 -0.939693 0   
     length 7.29079   
     axis 0 0 -20   XYZ
    dof rx ry rz
    limits (-160.0 20.0)
           (-70.0 70.0)
           (-70.0 60.0)
  end
  begin
     id 8 
     name rtibia
     direction -0.34202 -0.939693 0   
     length 7.47143   
     axis 0 0 -20   XYZ
    dof rx
    limits (-10.0 170.0)
 end
 begin
     id 9 
     name rfoot
     direction -0.119907 -0.329441 0.936532   
     length 1.79439  
     axis -90 -7.62852e-016 -20   XYZ
    dof rx rz
    limits (-45.0 90.0)
           (-20.0 70.0)
  end
  begin
     id 10 
     name rtoes
     direction -1.53571e-011 -4.21961e-011 1   
     length 0.896039   
     axis -90 -7.62852e-016 -20   XYZ
    dof rx
    limits (-90.0 20.0)
  end
  begin
     id 11 
     name lowerback
     direction 0.0367721 0.992912 -0.113016   
     length 1.73542   
     axis 0 0 0   XYZ
    dof rx ry rz
    limits (-20.0 45.0)
           (-30.0 30.0)
           (-30.0 30.0)
  end
  begin
     id 12 
     name upperback
     direction -0.000314626 0.990678 0.136227   
     length 1.7514   
     axis 0 0 0   XYZ
    dof rx ry rz
    limits (-20.0 45.0)
           (-30.0 30.0)
           (-30.0 30.0)
  end
  begin
     id 13 
     name thorax
     direction -0.0226159 0.981151 0.191917   
     length 1.71471   
     axis 0 0 0   XYZ
    dof rx ry rz
    limits (-20.0 45.0)
           (-30.0 30.0)
           (-30.0 30.0)
  end
  begin
     id 14 
     name lowerneck
     direction 0.0219333 0.998071 0.0580739   
     length 1.65882   
     axis 0 0 0   XYZ
    dof rx ry rz
    limits (-20.0 45.0)
           (-30.0 30.0)
           (-30.0 30.0)
  end
  begin
     id 15 
     name upperneck
     direction 0.0384529 0.980058 -0.194957   
     length 1.6612   
     axis 0 0 0   XYZ
    dof rx ry rz
    limits (-20.0 45.0)
           (-30.0 30.0)
           (-30.0 30.0)
  end
  begin
     id 16
     name head
     direction 0.00592123 0.997421 -0.0715234  
     length 1.68077  
     axis 0 0 0   XYZ
    dof rx ry rz
    limits (-20.0 45.0)
           (-30.0 30.0)
           (-30.0 30.0)
  end
  begin
     id 17 
     name lclavicle
     direction 0.904803 0.417826 0.0821728  
     length 3.42227  
     axis 0 0 0   XYZ
    dof ry rz
    limits (-20.0 10.0)
           (0.0 20.0)
  end
  begin
     id 18 
     name lhumerus
     direction 1 -4.48965e-011 -2.68786e-027   
     length 5.11878   
     axis -180 -30 -90   XYZ
    dof rx ry rz
    limits (-60.0 90.0)
           (-90.0 90.0)
           (-90.0 90.0)
  end
  begin
     id 19
     name lradius
     direction 1 -4.48965e-011 2.61168e-028   
     length 3.59971   
     axis -180 -30 -90   XYZ
    dof rx
    limits (-10.0 170.0)
  end
  begin
     id 20
     name lwrist
     direction 1 -4.48965e-011 1.58672e-027   
     length 1.79985   
     axis -1.65735e-015 90 90   XYZ
    dof ry
    limits (-180.0 0.0)
 end
  begin
     id 21 
     name lhand
     direction 1 -4.48942e-011 3.17344e-027   
     length 0.62877   
     axis -2.02492e-015 90 90   XYZ
    dof rx rz
    limits (-90.0 90.0)
           (-45.0 45.0)
  end
  begin
     id 22 
     name lfingers
     direction 1 -4.49011e-011 6.34687e-027   
     length 0.506931   
     axis -4.04985e-015 90 90   XYZ
    dof rx
    limits (0.0 90.0)
  end
  begin
     id 23
     name lthumb
     direction 0.707107 -6.34982e-011 0.707107   
     length 0.727854   
     axis -90 45 2.85299e-015   XYZ
    dof rx rz
    limits (-45.0 45.0)
           (-45.0 45.0)
  end
  begin
     id 24 
     name rclavicle
     direction -0.945647 0.32488 0.0143075   
     length 3.52737  
     axis 0 0 0   XYZ 
    dof ry rz
    limits (-10.0 20.0)
           (-20.0 0.0)
  end
  begin
     id 25 
     name rhumerus
     direction -1 -4.48962e-011 1.92182e-027  
     length 5.4902   
     axis -180 30 90   XYZ
    dof rx ry rz
    limits (-90.0 60.0)
           (-90.0 90.0)
           (-90.0 90.0)
  end
  begin
     id 26 
     name rradius
     direction -1 -4.48967e-011 -5.97193e-028   
     length 3.20659   
     axis -180 30 90   XYZ
    dof rx
    limits (-10.0 170.0)
  end
  begin
     id 27 
     name rwrist
     direction -1 -4.48964e-011 1.58672e-027   
     length 1.6033   
     axis -1.65735e-015 -90 -90   XYZ
    dof ry
    limits (-180.0 0.0)
  end
  begin
     id 28
     name rhand
     direction -1 -4.49006e-011 3.17344e-027   
     length 0.691885   
     axis -2.02492e-015 -90 -90   XYZ
    dof rx rz
    limits (-90.0 90.0)
           (-45.0 45.0)
  end
  begin
     id 29
     name rfingers
     direction -1 -4.48908e-011 6.34687e-027   
     length 0.557815   
     axis -4.04985e-015 -90 -90   XYZ
    dof rx
    limits (0.0 90.0)
  end
  begin
     id 30
     name rthumb
     direction -0.707107 -6.34999e-011 0.707107   
     length 0.800915   
     axis -90 -45 -2.85299e-015   XYZ
    dof rx rz
    limits (-45.0 45.0)
           (-45.0 45.0)
  end
:hierarchy
  begin
    root lhipjoint rhipjoint lowerback
    lhipjoint lfemur
    lfemur ltibia
    ltibia lfoot
    lfoot ltoes
    rhipjoint rfemur
    rfemur rtibia
    rtibia rfoot
    rfoot rtoes
    lowerback upperback
    upperback thorax
    thorax lowerneck lclavicle rclavicle
    lowerneck upperneck
    upperneck head
    lclavicle lhumerus
    lhumerus lradius
    lradius lwrist
    lwrist lhand lthumb
    lhand lfingers
    rclavicle rhumerus
    rhumerus rradius
    rradius rwrist
    rwrist rhand rthumb
    rhand rfingers
  end

#!OML:ASF I:\Actors\actors\Patient Classification 1\Patient 1\Session 1\Subject1.ASF
:FULLY-SPECIFIED
:DEGREES
1
root 0.650756 17.4386 9.37466 9.52989 -1.07881 -10.3059
lowerback -1.40703 2.2765 8.27934
upperback -9.07189 3.41935 0.817095
thorax -8.41556 1.11005 -3.9355
lowerneck -8.39562 -11.4944 -5.06088
upperneck 19.0916 -17.0898 8.97625
head 8.54942 -7.71414 1.96302
rclavicle -4.37326e-014 -2.22639e-014
rhumerus -63.6972 -45.4881 -43.6233
rradius 18.6133
rwrist 68.229
rhand -3.33078 -28.25
rfingers 7.12502
rthumb 22.3965 -56.9716
lclavicle -4.37326e-014 -2.22639e-014
lhumerus -50.6 34.2027 57.822
lradius 22.8578
lwrist -26.4296
lhand -19.4588 -14.7815
lfingers 7.12502
lthumb 6.86226 15.0873
rfemur -1.81882 28.637 27.9489
rtibia 0.4933
rfoot -12.4939 -29.7555
rtoes 6.21937
lfemur 7.79486 -48.9868 -12.731
ltibia -5.40302
lfoot -29.7646 56.6357
ltoes 18.1288
2
root 0.650679 17.4389 9.3748 9.52302 -1.10295 -10.2977
lowerback -1.38877 2.25032 8.28595
upperback -9.13294 3.3963 0.907187
thorax -8.50289 1.09664 -3.84461
lowerneck -8.06749 -11.4255 -5.46624
upperneck 19.0043 -16.9607 9.119
head 8.49974 -7.68407 2.10551
rclavicle 4.36332e-014 1.98785e-014
rhumerus -63.5472 -45.1506 -43.7244
rradius 18.6802
rwrist 67.9436
rhand -3.04463 -28.1983
rfingers 7.12502
rthumb 22.6711 -56.8866
lclavicle 4.36332e-014 1.98785e-014
lhumerus -50.9219 34.265 57.7619
lradius 22.9093
lwrist -26.4311
lhand -19.4699 -14.7671
lfingers 7.12502
lthumb 6.85154 15.1021
rfemur -1.79948 28.701 27.9467
rtibia 0.469711
rfoot -12.4661 -29.813
rtoes 6.24808
lfemur 7.8268 -48.9817 -12.7618
ltibia -5.40502
lfoot -29.9769 56.6047
ltoes 18.4192
3
root 0.650951 17.4388 9.37512 9.5331 -1.12403 -10.299
lowerback -1.41725 2.2209 8.28332
upperback -9.17939 3.36414 1.01837
thorax -8.54906 1.08273 -3.72316
lowerneck -7.70757 -11.3368 -5.90435
upperneck 18.8499 -16.8056 9.31406
head 8.42669 -7.64277 2.27592
rclavicle -1.87852e-014 -8.74653e-015
rhumerus -63.3438 -44.8014 -43.8401
rradius 18.7076
rwrist 67.6571
rhand -2.82399 -28.2116
rfingers 7.12502
rthumb 22.8829 -56.8739
lclavicle -1.87852e-014 -8.74653e-015
lhumerus -51.2735 34.4125 57.6556
lradius 22.9536
lwrist -26.4992
lhand -19.4343 -14.7807
lfingers 7.12502
lthumb 6.88596 15.0873
rfemur -1.82078 28.6986 27.9327
rtibia 0.463084
rfoot -12.4222 -29.8095
rtoes 6.13005
lfemur 7.82613 -48.9726 -12.7644
ltibia -5.39504
lfoot -30.1133 56.5696
ltoes 18.4861
4
root 0.650799 17.439 9.37503 9.52323 -1.11409 -10.2907
lowerback -1.41846 2.18101 8.26438
upperback -9.21809 3.32056 1.13833
thorax -8.60492 1.06465 -3.58391
lowerneck -7.40565 -11.2514 -6.37607
upperneck 18.7366 -16.6572 9.51188
head 8.38085 -7.60258 2.44699
rclavicle -2.68359e-015 -1.11319e-014
rhumerus -63.1165 -44.4233 -43.9741
rradius 18.7309
rwrist 67.3335
rhand -2.64854 -28.2751
rfingers 7.12502
rthumb 23.0512 -56.9165
lclavicle -2.68359e-015 -1.11319e-014
lhumerus -51.6165 34.5501 57.5954
lradius 23.0161
lwrist -26.5168
lhand -19.4274 -14.7521
lfingers 7.12502
lthumb 6.89256 15.1157
rfemur -1.80898 28.6969 27.9299
rtibia 0.459123
rfoot -12.4085 -29.8223
rtoes 6.06296
lfemur 7.80515 -48.8995 -12.749
ltibia -5.39482
lfoot -29.926 56.5165
ltoes 18.2591
5
root 0.646272 17.4441 9.38403 9.69864 -1.07618 -10.0704
lowerback -1.75062 2.14477 7.94441
upperback -9.27946 3.2334 1.19344
thorax -8.50072 1.05202 -3.33104
lowerneck -7.21139 -11.2056 -6.65983
upperneck 18.6419 -16.5591 9.56216
head 8.33441 -7.58162 2.53024
rclavicle 7.35503e-015 4.85035e-014
rhumerus -63.6356 -44.563 -42.9381
rradius 18.2631
rwrist 68.9507
rhand -3.37055 -28.0548
rfingers 7.12502
rthumb 22.3583 -56.7811
lclavicle 7.35503e-015 4.85035e-014
lhumerus -51.7689 34.4536 57.8514
lradius 23.1956
lwrist -26.1185
lhand -19.5277 -13.9625
lfingers 7.12502
lthumb 6.79576 15.9085
rfemur -2.21209 28.106 27.5134
rtibia 0.707452
rfoot -12.4011 -29.2816
rtoes 6.24963
lfemur 7.52766 -49.0718 -12.799
ltibia -5.35841
lfoot -30.1239 56.6028
ltoes 18.3522
6
root 0.638068 17.4541 9.40247 10.0812 -1.03435 -9.69506
lowerback -2.45884 2.17088 7.4324
upperback -9.41188 3.19174 1.2158
thorax -8.25373 1.07941 -2.99443
lowerneck -6.85525 -11.2018 -7.12686
upperneck 18.5398 -16.5158 9.67001
head 8.28241 -7.59997 2.66139
rclavicle 1.98785e-015 -1.31198e-014
rhumerus -63.3014 -44.3 -42.9244
rradius 18.0587
rwrist 67.2933
rhand -2.41857 -28.5811
rfingers 7.12502
rthumb 23.2719 -57.1947
lclavicle 1.98785e-015 -1.31198e-014
lhumerus -51.8235 34.0782 58.4511
lradius 23.4452
lwrist -25.4034
lhand -19.6724 -12.5122
lfingers 7.12502
lthumb 6.65609 17.3632
rfemur -3.2955 26.3101 26.669
rtibia 1.54659
rfoot -12.434 -27.5959
rtoes 6.36192
lfemur 6.98109 -49.5006 -12.8419
ltibia -5.27931
lfoot -30.7076 56.8544
ltoes 18.6921
7
root 0.633231 17.4598 9.41174 10.2643 -1.00054 -9.56942
lowerback -2.79669 2.0443 7.14795
upperback -9.45909 2.99359 1.35048
thorax -8.14461 1.01206 -2.67492
lowerneck -6.71548 -11.0573 -7.36345
upperneck 18.5042 -16.2903 9.7062
head 8.24757 -7.51277 2.74566
rclavicle -8.15017e-015 -7.95139e-016
rhumerus -61.4526 -43.3539 -45.0169
rradius 18.5286
rwrist 62.2392
rhand 0.27338 -30.121
rfingers 7.12502
rthumb 25.8522 -58.3839
lclavicle -8.15017e-015 -7.95139e-016
lhumerus -52.1069 34.1914 58.4978
lradius 23.6136
lwrist -24.9969
lhand -19.7098 -11.8273
lfingers 7.12502
lthumb 6.61994 18.0492
rfemur -3.4551 26.4361 26.4559
rtibia 1.49106
rfoot -12.4696 -27.7545
rtoes 6.95509
lfemur 6.69827 -49.6685 -12.7655
ltibia -5.25994
lfoot -30.6291 57.0299
ltoes 18.5305
8
root 0.631693 17.46 9.41188 10.2618 -0.983303 -9.61873
lowerback -2.76036 1.93107 7.11718
upperback -9.48127 2.85533 1.50347
thorax -8.21295 0.949609 -2.4933
lowerneck -6.62104 -10.9179 -7.60067
upperneck 18.4826 -16.0805 9.78107
head 8.23002 -7.42738 2.83755
rclavicle -1.69961e-014 -4.17448e-014
rhumerus -60.5618 -42.7617 -45.9847
rradius 18.7875
rwrist 60.1736
rhand 1.46082 -30.8202
rfingers 7.12502
rthumb 26.9888 -58.9123
lclavicle -1.69961e-014 -4.17448e-014
lhumerus -52.474 34.4553 58.2936
lradius 23.6772
lwrist -24.9444
lhand -19.7167 -11.854
lfingers 7.12502
lthumb 6.61328 18.0227
rfemur -3.44992 26.483 26.5249
rtibia 1.50413
rfoot -12.4771 -27.7974
rtoes 6.90832
lfemur 6.69453 -49.6627 -12.6885
ltibia -5.28108
lfoot -30.4279 57.0892
ltoes 18.3512
9
root 0.631158 17.4594 9.41296 10.2683 -0.98534 -9.60969
lowerback -2.73442 1.84113 7.05127
upperback -9.50445 2.74445 1.6219
thorax -8.27201 0.902311 -2.329
lowerneck -6.63295 -10.8175 -7.81065
upperneck 18.5193 -15.9251 9.82947
head 8.25122 -7.36221 2.90308
rclavicle 1.03368e-014 -2.38542e-015
rhumerus -60.1547 -42.3792 -46.3616
rradius 18.8339
rwrist 59.7052
rhand 1.73199 -30.97
rfingers 7.12502
rthumb 27.2482 -59.0216
lclavicle 1.03368e-014 -2.38542e-015
lhumerus -52.8006 34.6869 58.1207
lradius 23.7368
lwrist -24.9
lhand -19.777 -11.828
lfingers 7.12502
lthumb 6.5551 18.0506
rfemur -3.45206 26.513 26.5135
rtibia 1.50762
rfoot -12.5188 -27.8111
rtoes 7.18069
lfemur 6.72948 -49.7672 -12.7332
ltibia -5.27256
lfoot -30.8094 57.1041
ltoes 18.7343
10
root 0.631454 17.4591 9.41476 10.2661 -0.98703 -9.62647
lowerback -2.7321 1.76761 7.0196
upperback -9.5167 2.65366 1.74292
thorax -8.30207 0.863858 -2.18044
lowerneck -6.61525 -10.7445 -8.09289
upperneck 18.546 -15.8154 9.95307
head 8.28056 -7.31856 2.99984
rclavicle -1.86858e-014 2.06736e-014
rhumerus -60.2882 -42.304 -45.9865
rradius 18.5953
rwrist 61.0863
rhand 0.992312 -30.4731
rfingers 7.12502
rthumb 26.5405 -58.6338
lclavicle -1.86858e-014 2.06736e-014
lhumerus -53.1145 34.9505 57.9386
lradius 23.7806
lwrist -24.9263
lhand -19.834 -11.7828
lfingers 7.12502
lthumb 6.50003 18.0974
rfemur -3.43027 26.5216 26.5361
rtibia 1.48144
rfoot -12.501 -27.8141
rtoes 7.22361
lfemur 6.80502 -49.9106 -12.7813
ltibia -5.27379
lfoot -31.1456 57.1571
ltoes 19.0727
11
root 0.63167 17.4591 9.41626 10.2779 -0.980494 -9.67852
lowerback -2.80763 1.49571 6.90449
upperback -9.62746 2.30995 2.12917
thorax -8.43121 0.713607 -1.69362
lowerneck -6.04259 -10.4311 -8.81425
upperneck 18.4614 -15.3339 10.0845
head 8.16997 -7.15322 3.24569
rclavicle -1.93318e-014 5.4467e-014
rhumerus -59.7876 -41.4837 -46.1308
rradius 18.3987
rwrist 61.7176
rhand 0.697211 -30.2661
rfingers 7.12502
rthumb 26.258 -58.4692
lclavicle -1.93318e-014 5.4467e-014
lhumerus -54.2373 35.5587 57.3612
lradius 23.9614
lwrist -24.8347
lhand -19.8579 -11.755
lfingers 7.12502
lthumb 6.47696 18.1259
rfemur -3.42421 26.4883 26.5973
rtibia 1.45294
rfoot -12.4225 -27.8078
rtoes 6.836
lfemur 6.86402 -50.0715 -12.7765
ltibia -5.28001
lfoot -31.2438 57.3097
ltoes 19.0473
